# xmcd
#
# Track frame offsets:
#	150
#	12797
#	27615
#	46622
#	63205
#	80942
#	98352
#	115260
#	130197
#	142937
#	157795
#	176785
#	193392
#	211142
#	228552
#	245410
#
# Disc length: 3472 seconds
#
# Revision: 1
# Processed by: cddbd v1.5.2PL0 Copyright (c) Steve Scherf et al.
# Submitted via: audiograbber 1.83.01
#
DISCID=d00d8e10
DTITLE=Various Artist - Sc-3024
DYEAR=1900
DGENRE=Karaoke
TTITLE0=01 - Leann Rimes - I Want To Be A Cowboy
TTITLE1=02 - George Straght - Round About Way
TTITLE2=03 - Ty Herndon - Loved Too Much
TTITLE3=04 - Sherrie Austin - Lucky In Love
TTITLE4=05 - Neal McCoy - The Shake
TTITLE5=06 - David Kersh - Day In, Day Out
TTITLE6=07 - River Road - I Broke It I'll Fix It
TTITLE7=08 - Micheal Peterson - Drink, Swear, Steal And Lie
TTITLE8=09 - Vocal -  Leann Rimes - I Want To Be A Cowboy
TTITLE9=10 - Vocal - George Straght - Round About Way
TTITLE10=11 - Vocal - Ty Herndon - Loved Too Much
TTITLE11=12 - Vocal - Sherrie Austin - Lucky In Love
TTITLE12=13 - Vocal - Neal Mccoy - The Shake
TTITLE13=14 - Vocal - David Kersh - Day In, Day Out
TTITLE14=15 - Vocal - River Road - I Broke It I'll Fix It
TTITLE15=16 - Vocal - Micheal Peterson - Drink, Swear, Steal And Lie
EXTD=
EXTT0=
EXTT1=
EXTT2=
EXTT3=
EXTT4=
EXTT5=
EXTT6=
EXTT7=
EXTT8=
EXTT9=
EXTT10=
EXTT11=
EXTT12=
EXTT13=
EXTT14=
EXTT15=
PLAYORDER=
